<svg width="82" height="45" viewBox="0 0 82 45" fill="none" xmlns="http://www.w3.org/2000/svg">
<path d="M81.8353 38.796H81.6706C81.506 38.796 81.259 38.8787 80.9297 38.8787C80.3534 38.8787 80.0241 38.4651 80.0241 37.5552V28.7868H81.8353V27.2978H80.0241V22.9963H78.4598V27.2978H76.6486V28.7868H78.4598V37.6379C78.4598 38.6305 78.6245 39.2096 79.0361 39.6232C79.3654 40.0368 79.9417 40.2022 80.518 40.2022C81.012 40.2022 81.4237 40.1195 81.753 40.0368H81.8353V38.796Z" fill="#EF4651"/>
<path d="M68.745 27.3806C67.3454 27.3806 65.9458 27.9597 64.9579 29.035V27.3806H63.476V40.285H64.9579V32.6747C65.0402 30.6067 66.6868 28.9523 68.745 28.9523C70.8033 28.9523 72.4499 30.6067 72.4499 32.6747V40.285H73.9318V32.6747C74.0141 29.7795 71.6266 27.3806 68.745 27.3806Z" fill="#EF4651"/>
<path d="M58.2069 36.5624C57.3836 37.9687 55.9017 38.7959 54.2551 38.7959C51.7852 38.7959 49.727 36.8106 49.5623 34.2463H59.6888C60.1005 34.2463 60.4298 33.9154 60.4298 33.5845V33.5018C60.1828 30.1102 57.5482 27.5459 54.2551 27.5459C50.7972 27.5459 47.998 30.4411 47.998 33.9981C47.998 37.5551 50.7972 40.3676 54.2551 40.3676C56.3133 40.3676 58.2892 39.2922 59.4418 37.4724L58.2069 36.5624ZM54.3374 28.9521C56.5603 28.9521 58.4539 30.5238 58.8655 32.7573H49.6446C50.2209 30.5238 52.0322 28.9521 54.3374 28.9521Z" fill="#EF4651"/>
<path d="M44.1286 25.5607C44.6226 25.5607 45.1165 25.1471 45.1165 24.5681C45.1165 23.989 44.7049 23.5754 44.1286 23.5754C43.6346 23.5754 43.1406 23.989 43.1406 24.5681C43.1406 25.1471 43.5523 25.5607 44.1286 25.5607Z" fill="#EF4651"/>
<path d="M44.8695 27.3806H43.3876V40.285H44.8695V27.3806Z" fill="#EF4651"/>
<path d="M40.5884 33.8326C40.5884 30.2756 37.7892 27.4631 34.4137 27.4631C32.6025 27.4631 30.8736 28.2903 29.7209 29.6966V27.4631H28.239V44.9999H29.7209V38.1341C30.8736 39.5403 32.6025 40.3675 34.4137 40.3675C37.7892 40.2848 40.5884 37.3896 40.5884 33.8326ZM34.4137 38.7959C31.8615 38.7959 29.8033 36.7278 29.7209 34.0808V33.9153C29.7209 31.1856 31.8615 29.0348 34.4137 29.0348C36.9659 29.0348 39.1065 31.2683 39.1065 33.9153C39.1065 36.5624 36.9659 38.7959 34.4137 38.7959Z" fill="#EF4651"/>
<path d="M18.0302 40.285C19.8414 40.285 21.5703 39.4578 22.7229 38.0516V40.285H24.2049V27.3806H22.7229V29.6141C21.5703 28.2078 19.8414 27.3806 18.0302 27.3806C14.6547 27.3806 11.8555 30.2758 11.8555 33.7501C11.8555 37.3898 14.6547 40.285 18.0302 40.285ZM13.3374 33.8328C13.3374 31.103 15.478 28.9523 18.0302 28.9523C20.5824 28.9523 22.7229 31.1858 22.7229 33.8328V33.9983C22.6406 36.6453 20.5824 38.7133 18.0302 38.7133C15.478 38.7961 13.3374 36.5626 13.3374 33.8328Z" fill="#EF4651"/>
<path d="M8.39759 34.081C8.39759 34.081 7.98594 33.7501 7.5743 33.5847C7.16265 33.4192 6.58635 33.1711 5.26908 32.9229C5.10442 32.8402 4.93976 32.8402 4.7751 32.8402C3.95181 32.592 3.29317 32.3439 2.7992 32.013C2.30522 31.5994 2.14056 31.2685 2.14056 30.8549C2.14056 30.3586 2.46988 29.945 2.96386 29.5314C3.54016 29.1178 4.36345 28.8696 5.26908 28.9523C6.33936 29.035 7.16265 29.5314 7.98594 30.1931L8.06827 30.2758L9.13855 29.2832C8.9739 29.1178 8.9739 29.1178 8.64458 28.8696C7.82128 28.2906 6.751 27.6288 5.26908 27.6288C4.03414 27.5461 2.96386 27.7942 2.05823 28.3733C1.15261 29.035 0.576305 29.945 0.576305 30.8549C0.576305 31.5994 0.740964 32.2611 1.3996 32.9229C2.22289 33.7501 3.62249 34.1637 4.7751 34.4119C5.84538 34.5773 6.751 34.9909 7.24498 35.4045C7.82129 35.9008 8.06827 36.3145 8.06827 36.8935C8.06827 37.3898 7.65663 37.9689 7.08032 38.2997C6.50402 38.7133 5.59839 38.9615 4.7751 38.9615C3.62249 38.8788 2.38755 38.3825 1.15261 37.4725L1.07028 37.3898L0 38.3825L0.0823293 38.4652C1.48193 39.706 3.04618 40.3678 4.69277 40.4505C5.92771 40.5332 6.99799 40.2023 7.90361 39.5406C8.89157 38.8788 9.46787 37.9689 9.46787 36.9762C9.79719 35.7354 9.22088 34.7428 8.39759 34.081Z" fill="#EF4651"/>
<path d="M80.8474 10.5056C80.8474 10.5056 80.4358 10.1747 80.0241 10.0092C79.6125 9.84379 79.0362 9.59563 77.7189 9.34747C77.5542 9.26475 77.3896 9.26475 77.2249 9.26475C76.4016 9.01659 75.743 8.76842 75.249 8.43754C74.7551 8.02394 74.5904 7.69306 74.5904 7.27945C74.5904 6.78313 74.9197 6.36953 75.4137 5.95592C75.99 5.54232 76.8133 5.29416 77.7189 5.37688C78.7892 5.4596 79.6125 5.95593 80.4358 6.61769L80.5181 6.70041L81.5884 5.70776C81.4237 5.54232 81.4237 5.54232 81.0944 5.29416C80.2711 4.71512 79.2008 4.05335 77.7189 4.05335C76.484 3.97063 75.4137 4.21879 74.5081 4.79784C73.6024 5.4596 73.0261 6.36953 73.0261 7.27945C73.0261 8.02394 73.1908 8.6857 73.8494 9.34747C74.6727 10.1747 76.0723 10.5883 77.2249 10.8364C78.2952 11.0019 79.2008 11.4155 79.6948 11.8291C80.2711 12.3254 80.5181 12.739 80.5181 13.3181C80.5181 13.8144 80.1065 14.3934 79.5301 14.7243C78.9538 15.1379 78.0482 15.3861 77.2249 15.3861C76.0723 15.3034 74.8374 14.807 73.6024 13.8971L73.5201 13.8144L72.4498 14.807L72.5322 14.8897C73.9318 16.1306 75.496 16.7923 77.1426 16.875C78.3775 16.9578 79.4478 16.6269 80.3534 15.9651C81.3414 15.3033 81.9177 14.3934 81.9177 13.4008C82.247 12.16 81.753 11.1673 80.8474 10.5056Z" fill="#F3F3F3"/>
<path d="M69.6506 3.80518H68.1687V16.7096H69.6506V3.80518Z" fill="#F3F3F3"/>
<path d="M68.9096 1.98529C69.4036 1.98529 69.8975 1.57169 69.8975 0.992647C69.8975 0.413603 69.4859 0 68.9096 0C68.4156 0 67.9216 0.413603 67.9216 0.992647C67.9216 1.57169 68.3333 1.98529 68.9096 1.98529Z" fill="#F3F3F3"/>
<path d="M63.5582 14.1452C62.6525 14.807 61.5823 15.2206 60.3473 15.2206C57.5481 15.2206 55.3252 12.9871 55.3252 10.2573C55.3252 7.52756 57.6305 5.2941 60.3473 5.2941C61.5823 5.2941 62.6525 5.70771 63.5582 6.36947L64.6285 5.2941C63.4758 4.30146 61.9939 3.72241 60.3473 3.72241C56.7248 3.72241 53.761 6.61763 53.761 10.1746C53.761 13.7316 56.7248 16.6268 60.3473 16.6268C61.9939 16.6268 63.4758 16.0478 64.6285 15.0551L63.5582 14.1452Z" fill="#F3F3F3"/>
<path d="M50.7972 3.80518H49.3153V16.7096H50.7972V3.80518Z" fill="#F3F3F3"/>
<path d="M50.0562 1.98529C50.5502 1.98529 51.0441 1.57169 51.0441 0.992647C51.0441 0.413603 50.6325 0 50.0562 0C49.5622 0 49.0682 0.413603 49.0682 0.992647C49.0682 1.57169 49.4799 1.98529 50.0562 1.98529Z" fill="#F3F3F3"/>
<path d="M44.8695 0.0827637H43.3876V16.7096H44.8695V0.0827637Z" fill="#F3F3F3"/>
<path d="M34.4137 3.80515C32.6025 3.80515 30.8736 4.63235 29.7209 6.0386V0H28.239V16.7096H29.7209V14.4761C30.8736 15.8824 32.6025 16.7096 34.4137 16.7096C37.7892 16.7096 40.5884 13.8143 40.5884 10.3401C40.5884 6.70037 37.7892 3.80515 34.4137 3.80515ZM39.1065 10.3401C39.1065 13.0699 36.9659 15.2206 34.4137 15.2206C31.8615 15.2206 29.7209 12.9871 29.7209 10.3401V10.1746C29.8033 7.52757 31.8615 5.45956 34.4137 5.45956C36.9659 5.37684 39.1065 7.61029 39.1065 10.3401Z" fill="#F3F3F3"/>
<path d="M23.7108 3.80518V11.4155C23.7108 13.4835 22.0642 15.1379 19.9237 15.2206C17.8655 15.2206 16.2189 13.5662 16.2189 11.4155V3.80518H14.7369V11.4155C14.7369 14.3107 17.0422 16.7096 19.9237 16.7096C22.8052 16.7096 25.1928 14.3107 25.1928 11.4155V3.80518H23.7108Z" fill="#F3F3F3"/>
<path d="M12.4317 10.2574C12.4317 6.70044 9.63248 3.88794 6.25697 3.88794C4.44573 3.88794 2.71681 4.71515 1.5642 6.1214V3.88794H0.0822754V21.4247H1.5642V14.5589C2.71681 15.9651 4.44573 16.7924 6.25697 16.7924C9.63248 16.7096 12.4317 13.8144 12.4317 10.2574ZM6.17465 15.2207C3.62244 15.2207 1.5642 13.1526 1.48187 10.5056V10.3401C1.48187 7.61037 3.62244 5.45963 6.17465 5.45963C8.72685 5.45963 10.8674 7.69309 10.8674 10.3401C10.8674 12.9872 8.80918 15.2207 6.17465 15.2207Z" fill="#F3F3F3"/>
</svg>
