<svg width="160" height="40" viewBox="0 0 160 40" fill="none" xmlns="http://www.w3.org/2000/svg">
<g clip-path="url(#clip0_2238_1108)">
<path d="M101.658 25.6416C101.114 28.0061 99.5886 29.3809 97.3013 29.3809C95.7764 29.4359 94.3604 28.666 93.5434 27.3462C92.6721 25.9715 92.7265 22.7821 92.7265 21.8473C92.7265 20.8574 92.7265 16.4583 92.8899 15.7984C90.8204 15.7434 88.9143 15.6334 87.6616 15.6334C87.4983 16.4583 87.4983 22.5621 87.4983 22.5621C87.4983 25.5316 87.7161 28.2261 89.4044 30.3707C91.3105 32.7352 94.197 34.11 97.2468 34.055C102.747 34.055 106.287 30.3157 106.941 25.6416H101.658Z" fill="#337ACE"/>
<path d="M93.489 13.7638C93.6524 13.4338 94.6327 11.6192 97.3013 11.6192C99.0985 11.5642 100.732 12.664 101.331 14.3687C103.183 14.5886 105.089 14.8636 106.941 15.1935C106.233 10.6843 102.856 7.00002 97.3013 7.00002C95.4496 6.94503 93.5979 7.43994 92.0185 8.37476C89.7856 9.8045 88.5875 11.5092 88.0429 13.5438C89.8401 13.5988 91.6918 13.6538 93.489 13.7638ZM26.4473 9.74951C24.759 7.93484 22.2538 7.21998 19.1495 7.21998H10V27.1813C11.6338 26.5214 13.3766 25.8615 15.1194 25.2566V11.8391H19.0406C20.7289 11.8391 22.0359 12.444 22.8528 13.4888C23.8331 14.7536 23.9421 15.7984 23.9421 22.4522C25.6848 21.9572 27.3731 21.5173 29.1159 21.0774C29.1159 14.5886 29.1159 12.554 26.4473 9.74951Z" fill="#337ACE"/>
<path d="M58.1982 22.3422C60.4311 21.5723 62.1738 19.7027 62.7729 17.3931C56.5099 18.3279 50.3013 19.5927 44.2016 21.1324V33.78H49.321V23.222H53.0244L58.1437 33.835H64.08L58.1982 22.3422ZM84.6663 29.1059H72.5215V22.7271H82.9235V18.053H72.5215V16.2383C70.8332 16.4033 69.0904 16.5682 67.4021 16.7882V33.78H84.7208L84.6663 29.1059ZM19.4763 33.78C22.1993 33.78 24.7045 33.0102 26.4473 31.2505C27.9722 29.7108 28.6257 27.8961 28.8981 25.9715C23.1252 28.1161 17.5157 30.7006 12.1785 33.78H19.4763ZM33.854 33.78H38.9734V22.5621C37.2306 23.057 35.5423 23.6069 33.854 24.1568V33.78Z" fill="#337ACE"/>
<path d="M33.854 19.8676C35.5423 19.4827 37.2306 19.0978 38.9734 18.7678V7.21997H33.854V19.8676ZM84.6663 7.21997H67.4021V14.5336C69.1449 14.3686 70.8331 14.2037 72.5214 14.0937V11.8391H84.7207L84.6663 7.21997Z" fill="#337ACE"/>
<path d="M142.286 33.7801H138.419L129.76 7.21997H135.097L140.38 24.5418L145.608 7.21997H150.946L142.286 33.7801ZM120.338 11.8391V33.7801H115.219V11.8391H108.357V7.21997H127.255V11.8391H120.338Z" fill="#337ACE"/>
<path d="M49.321 11.8391H54.1136C56.292 11.8391 57.8714 13.1039 57.8714 15.6334L62.9907 15.0285C62.8273 10.7393 59.6686 7.21997 54.4948 7.21997H44.1472V17.778C45.8355 17.4481 47.5782 17.1731 49.2665 16.8982L49.321 11.8391Z" fill="#337ACE"/>
</g>
<defs>
<clipPath id="clip0_2238_1108">
<rect width="141" height="27" fill="white" transform="translate(10 7)"/>
</clipPath>
</defs>
</svg>
