<svg width="160" height="40" viewBox="0 0 160 40" fill="none" xmlns="http://www.w3.org/2000/svg">
<g clip-path="url(#clip0_2238_1069)">
<path d="M49.5115 10.8714C49.4904 10.7174 49.3562 10.632 49.2448 10.6227C49.1343 10.6134 46.9688 10.5804 46.9688 10.5804C46.9688 10.5804 45.1577 8.81745 44.9788 8.6381C44.7999 8.45877 44.4505 8.5129 44.3146 8.55351C44.313 8.55436 43.9746 8.65926 43.4049 8.83606C43.3096 8.52644 43.1694 8.14576 42.9694 7.7634C42.3247 6.53001 41.3804 5.87778 40.2394 5.8761C40.2377 5.8761 40.2368 5.8761 40.2351 5.8761C40.1558 5.8761 40.0773 5.88371 39.998 5.89047C39.9643 5.84987 39.9305 5.81011 39.8951 5.77119C39.398 5.23825 38.7609 4.97854 37.9971 5.00139C36.5236 5.04368 35.0561 6.11042 33.8661 8.00534C33.029 9.33855 32.3918 11.0135 32.2112 12.3104C30.5192 12.8357 29.336 13.2028 29.3098 13.2113C28.4558 13.4803 28.4288 13.5065 28.3174 14.3136C28.2347 14.9235 26 32.2451 26 32.2451L44.7273 35.4918L52.8441 33.4691C52.8441 33.4691 49.5325 11.0254 49.5115 10.8714ZM42.4673 9.12706C42.0361 9.26072 41.5457 9.41299 41.0141 9.57795C41.0031 8.83014 40.9145 7.78962 40.5668 6.89038C41.685 7.10271 42.2352 8.37079 42.4673 9.12706ZM40.0343 9.88249C39.0528 10.187 37.9819 10.5195 36.9076 10.8528C37.2097 9.693 37.7827 8.53828 38.4866 7.78116C38.7482 7.49946 39.1144 7.18562 39.5482 7.00627C39.9558 7.85899 40.0444 9.06615 40.0343 9.88249ZM38.0266 5.98437C38.3726 5.97676 38.6638 6.0529 38.9127 6.21701C38.5144 6.42427 38.1296 6.72204 37.7684 7.11033C36.8325 8.117 36.1151 9.67947 35.8291 11.1869C34.937 11.4636 34.0644 11.7351 33.261 11.9838C33.7683 9.61095 35.7523 6.05036 38.0266 5.98437Z" fill="#95BF47"/>
<path d="M49.2456 10.6236C49.1351 10.6143 46.9696 10.5813 46.9696 10.5813C46.9696 10.5813 45.1586 8.81831 44.9797 8.63897C44.913 8.57213 44.8227 8.53745 44.7281 8.52307L44.729 35.491L52.8449 33.4692C52.8449 33.4692 49.5334 11.0262 49.5123 10.8723C49.4912 10.7183 49.3562 10.6329 49.2456 10.6236Z" fill="#5E8E3E"/>
<path d="M40.2292 14.8068L39.2866 18.3419C39.2866 18.3419 38.2351 17.8623 36.9886 17.941C35.1607 18.0569 35.1412 19.2124 35.1598 19.5026C35.2594 21.0837 39.4089 21.4288 39.6419 25.1324C39.825 28.0458 38.1 30.0389 35.6147 30.1962C32.6315 30.3848 30.9892 28.621 30.9892 28.621L31.6213 25.9259C31.6213 25.9259 33.2745 27.1762 34.5978 27.0924C35.462 27.0374 35.7708 26.3328 35.7396 25.8345C35.6096 23.7721 32.2306 23.8939 32.0171 20.505C31.8373 17.6534 33.7058 14.7636 37.8283 14.5031C39.4165 14.4007 40.2292 14.8068 40.2292 14.8068Z" fill="white"/>
<path d="M63.5326 22.2094C62.5993 21.7018 62.1197 21.2739 62.1197 20.6857C62.1197 19.9373 62.7859 19.4565 63.8264 19.4565C65.0376 19.4565 66.119 19.9641 66.119 19.9641L66.9719 17.3446C66.9719 17.3446 66.1876 16.7296 63.8791 16.7296C60.6666 16.7296 58.4401 18.5738 58.4401 21.1664C58.4401 22.6365 59.4797 23.7591 60.8666 24.5604C61.9866 25.2014 62.3867 25.6562 62.3867 26.3241C62.3867 27.0188 61.8267 27.5801 60.7871 27.5801C59.2377 27.5801 57.7746 26.778 57.7746 26.778L56.8681 29.3975C56.8681 29.3975 58.2199 30.3062 60.4941 30.3062C63.8004 30.3062 66.1734 28.6759 66.1734 25.7359C66.1726 24.1602 64.9731 23.0375 63.5326 22.2094Z" fill="black"/>
<path d="M76.7042 16.7036C75.0778 16.7036 73.798 17.4789 72.8119 18.6544L72.7583 18.6275L74.1712 11.2246H70.4917L66.9192 30.0662H70.5988L71.8251 23.6257C72.3047 21.1933 73.5577 19.6973 74.7312 19.6973C75.5574 19.6973 75.878 20.2586 75.878 21.0607C75.878 21.5684 75.8244 22.1834 75.7181 22.691L74.332 30.0671H78.0117L79.451 22.4502C79.6113 21.6481 79.7182 20.6866 79.7182 20.0447C79.7167 17.9596 78.6237 16.7036 76.7042 16.7036Z" fill="black"/>
<path d="M88.0352 16.7036C83.6088 16.7036 80.6769 20.7126 80.6769 25.1755C80.6769 28.0349 82.4362 30.3331 85.7427 30.3331C90.0885 30.3331 93.0213 26.4315 93.0213 21.8612C93.0213 19.2157 91.4745 16.7036 88.0352 16.7036ZM86.2223 27.5013C84.969 27.5013 84.4357 26.4323 84.4357 25.0957C84.4357 22.9847 85.5292 19.5371 87.5287 19.5371C88.8352 19.5371 89.2611 20.6597 89.2611 21.7555C89.2611 24.0268 88.169 27.5013 86.2223 27.5013Z" fill="black"/>
<path d="M102.433 16.7036C99.9492 16.7036 98.5398 18.8952 98.5398 18.8952H98.487L98.7005 16.9175H95.4477C95.288 18.2541 94.994 20.2846 94.7014 21.8084L92.1417 35.3044H95.8214L96.8338 29.8523H96.9144C96.9144 29.8523 97.6693 30.3331 99.0741 30.3331C103.393 30.3331 106.219 25.897 106.219 21.4065C106.219 18.922 105.125 16.7036 102.433 16.7036ZM98.9134 27.5541C97.9583 27.5541 97.393 27.0197 97.393 27.0197L98.0064 23.572C98.4333 21.2739 99.6328 19.7502 100.913 19.7502C102.033 19.7502 102.379 20.7923 102.379 21.7815C102.379 24.1602 100.966 27.5541 98.9134 27.5541Z" fill="black"/>
<path d="M111.471 11.4117C110.299 11.4117 109.365 12.3473 109.365 13.5496C109.365 14.6454 110.058 15.3938 111.098 15.3938H111.151C112.298 15.3938 113.284 14.6185 113.311 13.256C113.311 12.187 112.591 11.4117 111.471 11.4117Z" fill="black"/>
<path d="M106.326 30.0662H110.005L112.512 16.9981H108.805L106.326 30.0662Z" fill="black"/>
<path d="M121.87 16.9712H119.31L119.443 16.3562C119.656 15.1002 120.403 13.9775 121.629 13.9775C122.284 13.9775 122.802 14.1646 122.802 14.1646L123.522 11.2783C123.522 11.2783 122.882 10.9578 121.522 10.9578C120.216 10.9578 118.91 11.332 117.923 12.187C116.67 13.256 116.083 14.8057 115.79 16.3562L115.684 16.9712H113.977L113.444 19.751H115.151L113.205 30.0671H116.884L118.83 19.751H121.363L121.87 16.9712Z" fill="black"/>
<path d="M130.721 16.9981C130.721 16.9981 128.421 22.8068 127.388 25.9776H127.335C127.265 24.9565 126.428 16.9981 126.428 16.9981H122.562L124.776 28.9973C124.83 29.2642 124.803 29.4253 124.696 29.6123C124.268 30.4405 123.549 31.2426 122.696 31.8308C122.003 32.3384 121.23 32.6589 120.617 32.8729L121.63 36C122.376 35.8398 123.922 35.2247 125.229 33.9955C126.909 32.4189 128.454 29.9866 130.054 26.6723L134.56 16.9973H130.721V16.9981Z" fill="black"/>
</g>
<defs>
<clipPath id="clip0_2238_1069">
<rect width="109" height="31" fill="white" transform="translate(26 5)"/>
</clipPath>
</defs>
</svg>
